<svg id="Layer_1" data-name="Layer 1" xmlns="http://www.w3.org/2000/svg" viewBox="0 0 69.44 21.32"><defs><style>.cls-1{fill:#3a7543;}.cls-1,.cls-2,.cls-3,.cls-4,.cls-5,.cls-6{fill-rule:evenodd;}.cls-2{fill:#78aa74;}.cls-3{fill:#4d6cb1;}.cls-4{fill:#478549;}.cls-5{fill:#fff;}.cls-6{fill:#4f7cbe;}.cls-7,.cls-8{fill:#272525;}.cls-8{font-size:4.06px;font-family:SofiaSansSemiCondensed-Italic, Sofia Sans Semi Condensed;font-style:italic;}.cls-9{letter-spacing:-0.02em;}.cls-10{letter-spacing:0em;}.cls-11{letter-spacing:0em;}.cls-12{letter-spacing:-0.01em;}</style></defs><path class="cls-1" d="M10,1.35A2.75,2.75,0,0,0,7.21,3.77c-.06.52,0,3.11,0,3.88H5.74c-1,0-2.13,0-2.49,0a2.66,2.66,0,0,0-1.77,1,2.7,2.7,0,0,0-.59,1.7h0v0h0v0h0a2.73,2.73,0,0,0,2.36,2.71c.36.05,1.49,0,2.49,0H7.18c0,.77,0,3.36,0,3.87a2.76,2.76,0,0,0,5.48,0c.06-.51,0-3.1,0-3.87h1.44c1,0,2.13,0,2.5,0a2.7,2.7,0,0,0,1.76-1,2.67,2.67,0,0,0,.59-1.7h0v0h0v0h0a2.73,2.73,0,0,0-2.35-2.71c-.37,0-1.5,0-2.5,0H12.71c0-.77,0-3.36,0-3.88A2.76,2.76,0,0,0,10,1.35" transform="translate(-0.89 -0.81)"/><path class="cls-2" d="M12.77,7.65l-2.18,2.2L7.18,13.2v3.15a3.31,3.31,0,0,0,.55,2,2.78,2.78,0,0,0,3.1,1,2.89,2.89,0,0,0,1.86-2.28l0-3.87h3a3.05,3.05,0,0,0,3.09-1.66,2.82,2.82,0,0,0-.71-3.21,2.5,2.5,0,0,0-1.5-.66Z" transform="translate(-0.89 -0.81)"/><path class="cls-3" d="M48.71,1.16c-.06.19-.12,10.81,0,11.25,1.44.07,5.67,0,7.26,0l0-2.14-5,0a18,18,0,0,1,0-2.33l5,0c.06-.53,0-1.58,0-2.17H51a17.15,17.15,0,0,1,0-2.38l5,0,0-2.15c-.64-.06-6.53,0-7.27,0" transform="translate(-0.89 -0.81)"/><path class="cls-3" d="M65.19,6.53a1.94,1.94,0,0,0-1.48,2.32c.54,2.45,4.37,1.69,3.81-.84a1.94,1.94,0,0,0-2.33-1.48m2.28-1.81a4.79,4.79,0,0,0-2.22-.39,4.11,4.11,0,1,0,2.16,7.79c.29.37-.67.31,2.21.31l0-8.13H67.48Z" transform="translate(-0.89 -0.81)"/><path class="cls-3" d="M57.08,12.4a15.62,15.62,0,0,0,2.17,0c.12-1.15-.17-3.18.09-4.17a2.57,2.57,0,0,1,.84-1.32,3.18,3.18,0,0,1,1.54-.6c.17-.13.07-.82.07-1a10.25,10.25,0,0,0,0-1.11A4.62,4.62,0,0,0,57.7,6.55a4.74,4.74,0,0,0-.62,2.59c0,1-.06,2.26,0,3.26" transform="translate(-0.89 -0.81)"/><path class="cls-4" d="M21.61,14.54l2.14.74,0-3.19c.92.19,1.63.82,3.38.18A4.11,4.11,0,1,0,22,6.64a8.43,8.43,0,0,0-.41,3.74c0,.72,0,3.72,0,4.16m3.66-8a1.94,1.94,0,0,0,.87,3.78C28.7,9.72,27.7,5.91,25.27,6.55Z" transform="translate(-0.89 -0.81)"/><path class="cls-4" d="M30.61,1.54V12.42h2.14c.07-.49,0-10.32,0-11.61a15.77,15.77,0,0,0-2.17.73" transform="translate(-0.89 -0.81)"/><path class="cls-4" d="M41.1,4.38H38.91c0,1.23,0,2.47,0,3.69a3,3,0,0,1-.22,1.61,1.44,1.44,0,0,1-2.42,0c-.53-.84,0-4.37-.26-5.3H33.88c-.08.29,0,2.4,0,2.87A9.4,9.4,0,0,0,34,10a3.63,3.63,0,0,0,6.86.11c.36-1,.24-4.5.21-5.76" transform="translate(-0.89 -0.81)"/><path class="cls-4" d="M41.81,10.25V12.5a23,23,0,0,0,2.35,0,5.08,5.08,0,0,0,2.12-.23,2.66,2.66,0,0,0-1.36-5.07c-.37,0-.79,0-.68-.48s.56-.27,1-.27c.76,0,1.64,0,2.39,0a15.46,15.46,0,0,0,0-2.26c-.73-.06-1.62,0-2.36,0a3.46,3.46,0,0,0-2,.36,2.66,2.66,0,0,0,0,4.58,2.93,2.93,0,0,0,.86.31c.38.07.8,0,1.13.06a.36.36,0,0,1,.14.68c-.28.13-2.83,0-3.56.06" transform="translate(-0.89 -0.81)"/><path class="cls-5" d="M12.23,2.82A1.64,1.64,0,0,0,10.6,4.26c0,.31,0,1.84,0,2.3H9.73c-.59,0-1.26,0-1.47,0a1.58,1.58,0,0,0-1,.59,1.61,1.61,0,0,0-.35,1h0v0h0a1.62,1.62,0,0,0,1.4,1.61c.21,0,.88,0,1.47,0h.86c0,.45,0,2,0,2.29a1.64,1.64,0,0,0,3.25,0c0-.3,0-1.84,0-2.29h.85c.59,0,1.26,0,1.48,0a1.62,1.62,0,0,0,1.05-.6,1.59,1.59,0,0,0,.35-1h0v0h0a1.6,1.6,0,0,0-1.4-1.6c-.22,0-.89,0-1.48,0h-.85c0-.46,0-2,0-2.3a1.64,1.64,0,0,0-1.62-1.44" transform="translate(-0.89 -0.81)"/><path class="cls-3" d="M12.23,4.69a1.06,1.06,0,0,0-1.06.94c0,.2,0,1.2,0,1.5H10.6c-.39,0-.82,0-1,0A1,1,0,0,0,9,7.53a1.1,1.1,0,0,0-.23.66h0A1.06,1.06,0,0,0,9,8.87a1,1,0,0,0,.69.39,9.07,9.07,0,0,0,1,0h.56c0,.3,0,1.3,0,1.5a1.05,1.05,0,0,0,1.06.94,1.07,1.07,0,0,0,1.06-.94c0-.2,0-1.2,0-1.5h.55a9.28,9.28,0,0,0,1,0,1.06,1.06,0,0,0,.91-1h0a1,1,0,0,0-.23-.66,1,1,0,0,0-.68-.39c-.14,0-.58,0-1,0H13.3c0-.3,0-1.3,0-1.5a1.07,1.07,0,0,0-1.06-.94" transform="translate(-0.89 -0.81)"/><path class="cls-3" d="M16.05,4.66v.77a.16.16,0,0,1-.16.16H15.1a.4.4,0,0,0-.35.3v.78a.16.16,0,0,1-.15.16h-.79a.16.16,0,0,1-.16-.16V5.89a.16.16,0,0,1,.16-.15h.79A.44.44,0,0,0,15,5.41V4.66a.16.16,0,0,1,.15-.16h.79a.16.16,0,0,1,.16.16" transform="translate(-0.89 -0.81)"/><path class="cls-6" d="M13.3,7.12,11.16,9.27v1.35a1.07,1.07,0,0,0,1.56,1,1.09,1.09,0,0,0,.57-.8V9.27h1.4a1.06,1.06,0,0,0,1-.86,1.09,1.09,0,0,0-.36-1,1,1,0,0,0-.58-.23Z" transform="translate(-0.89 -0.81)"/><path class="cls-7" d="M68.77,14.45v.63H68.7a.78.78,0,0,0-.19-.4.45.45,0,0,0-.31-.11.38.38,0,0,0-.22.07.22.22,0,0,0-.09.17A.26.26,0,0,0,68,15a.69.69,0,0,0,.25.18l.29.14a.6.6,0,0,1,.41.52.49.49,0,0,1-.19.41.68.68,0,0,1-.43.15,1.42,1.42,0,0,1-.38-.06l-.11,0a.08.08,0,0,0-.07.05h-.07v-.66h.07a.83.83,0,0,0,.21.43.56.56,0,0,0,.36.14.31.31,0,0,0,.22-.08.25.25,0,0,0,.09-.2.3.3,0,0,0-.1-.23,1.69,1.69,0,0,0-.39-.24,1.06,1.06,0,0,1-.38-.26.44.44,0,0,1-.09-.29.53.53,0,0,1,.56-.53,1,1,0,0,1,.26.05l.14,0,0,0s0,0,0-.06Zm-4.34.63h.85a.89.89,0,0,0,0-.24.45.45,0,0,0-.15-.18.42.42,0,0,0-.21-.06.44.44,0,0,0-.3.12A.54.54,0,0,0,64.43,15.08Zm0,.12a.91.91,0,0,0,.19.64.65.65,0,0,0,.48.23.48.48,0,0,0,.31-.1.69.69,0,0,0,.22-.34l.07,0a1,1,0,0,1-.25.51.64.64,0,0,1-.51.22.7.7,0,0,1-.56-.26,1,1,0,0,1-.24-.69,1,1,0,0,1,.24-.73.79.79,0,0,1,.61-.27.69.69,0,0,1,.51.2.77.77,0,0,1,.2.55Zm-2.21.45a1,1,0,0,1-.29.56.68.68,0,0,1-.48.19.74.74,0,0,1-.55-.26,1.06,1.06,0,0,1-.23-.71,1,1,0,0,1,.26-.71.83.83,0,0,1,.62-.27.63.63,0,0,1,.44.15.38.38,0,0,1,.18.29.19.19,0,0,1-.05.13.2.2,0,0,1-.14,0,.18.18,0,0,1-.17-.07.3.3,0,0,1-.05-.16.33.33,0,0,0-.08-.19.3.3,0,0,0-.2-.06.39.39,0,0,0-.32.15.79.79,0,0,0-.16.52,1.07,1.07,0,0,0,.16.59.51.51,0,0,0,.44.25A.58.58,0,0,0,62,16a1.11,1.11,0,0,0,.21-.34Zm-4.72-.81a.87.87,0,0,1,.62-.39.41.41,0,0,1,.25.08.51.51,0,0,1,.18.24,1.22,1.22,0,0,1,0,.37v.79a.62.62,0,0,0,0,.24.18.18,0,0,0,.07.08l.18,0v.08H58v-.08h0a.3.3,0,0,0,.18,0,.18.18,0,0,0,.07-.11s0-.08,0-.19v-.76a.67.67,0,0,0-.07-.36.22.22,0,0,0-.22-.12.65.65,0,0,0-.47.27v1a.86.86,0,0,0,0,.23.24.24,0,0,0,.08.09l.2,0v.08h-.91v-.08h0a.22.22,0,0,0,.19-.07.53.53,0,0,0,.05-.27v-.68a2.5,2.5,0,0,0,0-.4s0-.09,0-.1a.12.12,0,0,0-.09,0l-.13,0,0-.07.55-.23h.09Zm-3.69.24h.85a.89.89,0,0,0,0-.24.45.45,0,0,0-.15-.18.42.42,0,0,0-.21-.06.44.44,0,0,0-.3.12A.54.54,0,0,0,53.81,15.08Zm0,.12a.91.91,0,0,0,.2.64.61.61,0,0,0,.47.23.48.48,0,0,0,.31-.1.7.7,0,0,0,.23-.34l.06,0a1,1,0,0,1-.25.51.63.63,0,0,1-.5.22.73.73,0,0,1-.57-.26,1,1,0,0,1-.24-.69,1,1,0,0,1,.25-.73.77.77,0,0,1,.6-.27.69.69,0,0,1,.51.2.77.77,0,0,1,.2.55Zm-2.45-.75v1.48a1,1,0,0,0,0,.23.18.18,0,0,0,.08.09.62.62,0,0,0,.18,0v.08h-.9v-.08l.18,0a.24.24,0,0,0,.08-.09,1,1,0,0,0,0-.23v-.71a3.16,3.16,0,0,0,0-.38.13.13,0,0,0,0-.09.11.11,0,0,0-.08,0l-.14,0,0-.07.55-.23Zm-.17-1a.17.17,0,0,1,.14.06.2.2,0,0,1,.06.14.2.2,0,0,1-.06.15.17.17,0,0,1-.14.06.2.2,0,0,1-.14-.06.2.2,0,0,1-.06-.15.2.2,0,0,1,.06-.14A.18.18,0,0,1,51.19,13.49Zm-2.37,2.16a1,1,0,0,1-.29.56.68.68,0,0,1-.48.19.7.7,0,0,1-.54-.26,1,1,0,0,1-.24-.71,1,1,0,0,1,.26-.71.83.83,0,0,1,.62-.27.68.68,0,0,1,.45.15.39.39,0,0,1,.17.29.19.19,0,0,1-.05.13.2.2,0,0,1-.14,0,.21.21,0,0,1-.17-.07.3.3,0,0,1,0-.16.28.28,0,0,0-.08-.19.3.3,0,0,0-.2-.06.39.39,0,0,0-.32.15.79.79,0,0,0-.16.52,1.07,1.07,0,0,0,.16.59.51.51,0,0,0,.44.25.56.56,0,0,0,.35-.13,1,1,0,0,0,.22-.34Zm-3.61-1.2v.63h-.07a.78.78,0,0,0-.19-.4.45.45,0,0,0-.31-.11.38.38,0,0,0-.22.07.22.22,0,0,0-.09.17.31.31,0,0,0,.06.19.88.88,0,0,0,.26.18l.29.14a.6.6,0,0,1,.41.52.52.52,0,0,1-.19.41.68.68,0,0,1-.43.15,1.42,1.42,0,0,1-.38-.06l-.11,0a.08.08,0,0,0-.07.05H44.1v-.66h.07a.83.83,0,0,0,.21.43.56.56,0,0,0,.36.14A.31.31,0,0,0,45,16.2a.25.25,0,0,0,.09-.2.3.3,0,0,0-.1-.23,1.69,1.69,0,0,0-.39-.24,1.06,1.06,0,0,1-.38-.26.44.44,0,0,1-.09-.29.53.53,0,0,1,.56-.53,1,1,0,0,1,.26.05l.14,0,.05,0s0,0,0-.06Zm-4.34.63h.85a.58.58,0,0,0,0-.24.34.34,0,0,0-.15-.18.36.36,0,0,0-.2-.06.44.44,0,0,0-.3.12A.54.54,0,0,0,40.87,15.08Zm0,.12a.91.91,0,0,0,.19.64.65.65,0,0,0,.48.23.48.48,0,0,0,.31-.1.69.69,0,0,0,.22-.34l.07,0a1,1,0,0,1-.25.51.64.64,0,0,1-.51.22.7.7,0,0,1-.56-.26,1,1,0,0,1-.24-.69,1,1,0,0,1,.24-.73.79.79,0,0,1,.61-.27.69.69,0,0,1,.51.2.77.77,0,0,1,.2.55Zm-2.6-.55v1.21a.59.59,0,0,0,.06.33.26.26,0,0,0,.2.08h.16v.08h-1.1v-.08h.08a.24.24,0,0,0,.15,0,.18.18,0,0,0,.09-.1.82.82,0,0,0,0-.27V14.65h-.36V14.5h.36v-.12a1.08,1.08,0,0,1,.09-.46.62.62,0,0,1,.27-.31.78.78,0,0,1,.41-.11.63.63,0,0,1,.39.13.27.27,0,0,1,.11.2.21.21,0,0,1-.05.12.16.16,0,0,1-.11.05.19.19,0,0,1-.1,0,.72.72,0,0,1-.13-.15.45.45,0,0,0-.13-.14.23.23,0,0,0-.14,0,.24.24,0,0,0-.25.2,2.7,2.7,0,0,0,0,.53v.13h.47v.15Zm-2.86-.2v1.48a1,1,0,0,0,0,.23.18.18,0,0,0,.08.09l.18,0v.08H34.8v-.08l.18,0a.22.22,0,0,0,.07-.09.56.56,0,0,0,0-.23v-.71a2.47,2.47,0,0,0,0-.38.13.13,0,0,0-.05-.09.1.1,0,0,0-.08,0l-.14,0,0-.07.55-.23Zm-.17-1a.2.2,0,0,1,.15.06.2.2,0,0,1,.06.14.21.21,0,0,1-.21.21.2.2,0,0,1-.14-.06.2.2,0,0,1-.06-.15.21.21,0,0,1,.2-.2Zm-2.39,2.1.07,0-.23.74H30.58v-.08h.1a.27.27,0,0,0,.25-.11.77.77,0,0,0,0-.29V14.1a.55.55,0,0,0-.06-.32.29.29,0,0,0-.23-.09h-.1v-.07h1.23v.07a.92.92,0,0,0-.3,0,.26.26,0,0,0-.12.11.63.63,0,0,0,0,.3v1.72a.43.43,0,0,0,0,.23.11.11,0,0,0,.07.06,1,1,0,0,0,.31,0H32a1.5,1.5,0,0,0,.44,0,.56.56,0,0,0,.24-.17A1.22,1.22,0,0,0,32.85,15.59Z" transform="translate(-0.89 -0.81)"/><text class="cls-8" transform="translate(12.76 20.38)"><tspan class="cls-9">y</tspan><tspan class="cls-10" x="1.81" y="0">our companion</tspan><tspan class="cls-11" x="26.38" y="0"> </tspan><tspan class="cls-12" x="27.2" y="0">t</tspan><tspan x="28.65" y="0">o healthy times...</tspan></text></svg>